# xmcd
#
# Track frame offsets:
#	183
#	36418
#	57955
#	67985
#
# Disc length: 1123 seconds
#
# Revision: 0
# Processed by: cddbd v1.5PL3 Copyright (c) Steve Scherf et al.
# Submitted via: dBpowerAMP V4.0
#
DISCID=32046104
DTITLE=Delta - Gun
DYEAR=1994
DGENRE=Alternative
TTITLE0=Gun
TTITLE1=Tonight
TTITLE2=Take Away My Pain
TTITLE3=Sugared-Up (demo)
EXTD=
EXTT0=
EXTT1=
EXTT2=
EXTT3=
PLAYORDER=
